<?xml version="1.0" standalone="no"?>
<!DOCTYPE svg PUBLIC "-//W3C//DTD SVG 20010904//EN"
 "http://www.w3.org/TR/2001/REC-SVG-20010904/DTD/svg10.dtd">
<svg version="1.0" xmlns="http://www.w3.org/2000/svg"
 width="256.000000pt" height="256.000000pt" viewBox="0 0 256.000000 256.000000"
 preserveAspectRatio="xMidYMid meet">
<metadata>
Created by potrace 1.16, written by Peter Selinger 2001-2019
</metadata>
<g transform="translate(0.000000,256.000000) scale(0.100000,-0.100000)"
fill="#000000" stroke="none">
<path d="M632 2266 c-305 -73 -565 -140 -579 -147 -35 -19 -53 -60 -53 -120 0
-44 4 -55 33 -83 28 -28 50 -36 195 -70 l163 -38 -4 -191 c-3 -164 -7 -202
-25 -262 -42 -131 -44 -356 -6 -497 20 -77 91 -230 134 -293 127 -185 334
-324 568 -382 107 -27 322 -24 437 6 325 84 564 313 670 641 23 70 28 109 33
224 5 147 -5 236 -39 335 -16 45 -19 84 -19 237 l0 182 113 26 c61 14 115 26
120 26 4 0 7 -51 7 -114 0 -113 0 -114 -25 -120 -13 -3 -37 -23 -52 -43 -27
-35 -28 -43 -31 -160 -3 -110 -1 -128 18 -168 51 -106 201 -109 255 -5 11 22
15 64 15 164 l0 135 -31 35 c-16 19 -39 38 -50 41 -17 6 -19 16 -19 131 l0
125 35 33 c31 30 35 39 35 86 0 64 -22 103 -69 124 -20 9 -272 73 -561 142
-441 107 -540 127 -620 130 -93 4 -106 1 -648 -130z m1247 -85 c299 -72 550
-136 557 -142 19 -16 17 -43 -3 -61 -26 -22 -1100 -278 -1168 -278 -42 0 -883
193 -1137 261 -43 11 -62 50 -37 75 8 7 266 74 574 149 461 111 570 134 615
131 30 -2 300 -63 599 -135z m-1019 -486 c200 -48 377 -85 405 -85 28 0 190
34 365 76 173 41 341 81 373 89 l57 13 0 -159 0 -159 -477 -2 -478 -3 0 -35 0
-35 311 -3 312 -2 16 -65 c18 -74 21 -166 5 -198 -6 -12 -33 -43 -62 -69 -48
-43 -50 -48 -39 -72 15 -33 42 -33 90 -1 100 66 131 170 97 330 -8 38 -15 71
-15 72 0 2 56 3 125 3 l124 0 15 -52 c9 -29 20 -82 26 -118 37 -235 -43 -501
-202 -676 -129 -141 -365 -183 -505 -89 -83 54 -112 154 -80 266 26 87 67 126
167 158 81 26 85 29 88 59 3 26 -1 32 -22 38 -38 9 -152 -25 -205 -61 -115
-80 -162 -297 -93 -432 46 -89 155 -152 275 -161 l69 -5 -33 -14 c-171 -72
-429 -70 -617 4 l-63 26 34 23 c75 50 109 202 72 315 -24 71 -94 143 -155 158
-166 42 -221 91 -250 219 -24 111 -75 172 -144 172 -27 0 -28 2 -22 34 4 19
13 57 22 85 l15 51 266 2 c241 3 267 5 277 21 8 12 8 22 0 35 -10 15 -36 17
-273 20 l-261 2 0 159 c0 146 1 159 18 155 9 -2 177 -42 372 -89z m1604 -167
c12 -17 16 -48 16 -125 0 -90 -3 -106 -20 -123 -24 -24 -57 -26 -82 -3 -26 23
-27 227 -1 255 23 25 68 23 87 -4z m-2004 -398 c12 -6 26 -33 36 -68 35 -127
48 -157 87 -200 47 -50 84 -71 180 -101 92 -28 103 -35 131 -84 61 -106 32
-235 -62 -274 -32 -13 -37 -13 -71 10 -107 71 -238 242 -291 378 -32 84 -60
223 -60 300 0 52 11 60 50 39z"/>
</g>
</svg>
