<?xml version="1.0" standalone="no"?>
<!DOCTYPE svg PUBLIC "-//W3C//DTD SVG 20010904//EN"
 "http://www.w3.org/TR/2001/REC-SVG-20010904/DTD/svg10.dtd">
<svg version="1.0" xmlns="http://www.w3.org/2000/svg"
 width="256.000000pt" height="256.000000pt" viewBox="0 0 256.000000 256.000000"
 preserveAspectRatio="xMidYMid meet">
<metadata>
Created by potrace 1.16, written by Peter Selinger 2001-2019
</metadata>
<g transform="translate(0.000000,256.000000) scale(0.100000,-0.100000)"
fill="#000000" stroke="none">
<path d="M668 2554 c-5 -4 -8 -50 -8 -102 0 -86 -2 -93 -17 -87 -34 15 -175
55 -192 55 -39 0 -41 -15 -41 -291 l0 -267 -37 -7 c-75 -14 -202 -66 -208 -86
-5 -15 -16 -19 -50 -19 -53 0 -89 -15 -104 -44 -8 -15 -11 -191 -9 -626 l3
-605 23 -3 c54 -8 52 -26 52 604 l0 584 40 0 40 0 0 -743 c0 -565 3 -746 12
-755 17 -17 2199 -17 2216 0 9 9 12 190 12 755 l0 743 40 0 40 0 0 -790 0
-790 -540 0 c-539 0 -541 0 -570 22 -42 30 -138 30 -180 0 -29 -22 -31 -22
-570 -22 l-540 0 0 109 c0 117 -7 136 -52 129 -23 -3 -23 -6 -26 -137 -2 -126
-1 -135 19 -158 l22 -23 580 0 c564 0 580 1 604 20 14 11 38 20 53 20 15 0 39
-9 53 -20 24 -19 40 -20 604 -20 l580 0 21 23 22 23 0 825 c-1 632 -3 828 -13
840 -20 26 -53 39 -101 39 -35 0 -46 4 -51 19 -5 18 -35 32 -132 66 -10 3 -13
39 -13 133 0 104 -3 132 -15 142 -19 16 -166 8 -301 -15 -177 -31 -401 -122
-542 -221 -35 -24 -67 -42 -71 -39 -5 2 -11 29 -15 59 -8 73 -51 205 -91 286
-54 107 -151 218 -247 281 -93 63 -276 119 -300 93z m215 -146 c157 -84 270
-245 329 -471 21 -79 22 -104 25 -702 l3 -620 -34 63 c-93 171 -232 288 -413
347 l-53 17 0 713 0 714 41 -14 c22 -8 68 -29 102 -47z m-301 -114 l78 -26 0
-643 c0 -502 3 -645 13 -652 6 -5 41 -17 77 -27 186 -50 343 -199 419 -396 16
-41 32 -91 36 -110 l8 -35 -40 50 c-106 134 -260 261 -409 337 -84 43 -230 98
-260 98 -12 0 -14 112 -14 715 0 393 3 715 7 715 5 0 43 -12 85 -26z m1590
-465 c3 -180 5 -203 21 -213 32 -20 51 4 57 71 l5 60 33 -14 32 -13 0 -676 c0
-638 -1 -675 -17 -670 -144 42 -254 57 -422 58 -80 0 -138 4 -130 8 37 21 238
61 359 73 l135 12 0 464 c0 431 -1 465 -17 475 -13 8 -23 8 -35 0 -17 -10 -18
-44 -21 -438 l-2 -426 -41 0 c-73 0 -247 -30 -352 -61 -118 -35 -294 -118
-387 -183 l-65 -45 -3 697 -2 697 42 37 c182 156 513 283 750 287 l58 1 2
-201z m-1658 -1031 c178 -51 336 -142 474 -273 57 -53 171 -185 160 -185 -2 0
-26 9 -55 20 -242 92 -566 97 -836 14 -16 -5 -17 30 -15 673 l3 678 80 26 80
27 5 -476 5 -476 99 -28z m411 -477 c76 -20 215 -70 215 -78 0 -1 -202 -3
-450 -3 -432 0 -450 1 -450 19 0 14 16 23 73 39 39 12 99 26 132 31 33 6 71
13 85 15 14 3 90 3 170 1 105 -3 167 -9 225 -24z m1215 5 c129 -28 180 -48
180 -68 0 -17 -22 -18 -452 -18 -248 0 -449 2 -447 4 2 2 38 18 79 34 67 27
173 54 255 66 63 9 313 -3 385 -18z"/>
</g>
</svg>
