<?xml version="1.0" standalone="no"?>
<!DOCTYPE svg PUBLIC "-//W3C//DTD SVG 20010904//EN"
 "http://www.w3.org/TR/2001/REC-SVG-20010904/DTD/svg10.dtd">
<svg version="1.0" xmlns="http://www.w3.org/2000/svg"
 width="256.000000pt" height="256.000000pt" viewBox="0 0 256.000000 256.000000"
 preserveAspectRatio="xMidYMid meet">
<metadata>
Created by potrace 1.16, written by Peter Selinger 2001-2019
</metadata>
<g transform="translate(0.000000,256.000000) scale(0.100000,-0.100000)"
fill="#000000" stroke="none">
<path d="M500 2498 c-77 -30 -169 -123 -198 -201 -26 -68 -29 -184 -8 -263 11
-42 11 -55 0 -75 -10 -18 -13 -75 -14 -217 0 -208 4 -230 55 -270 32 -26 32
-38 -2 -47 -47 -11 -123 -66 -164 -117 -39 -50 -67 -123 -110 -290 -32 -125
-25 -259 18 -351 43 -90 125 -175 214 -222 l69 -36 0 -185 0 -184 400 0 400 0
2 392 3 392 52 -69 c28 -39 63 -81 77 -94 26 -24 26 -25 26 -183 0 -213 -18
-198 240 -198 l200 0 0 -80 0 -80 -80 0 -80 0 0 -40 0 -40 320 0 320 0 0 40 0
40 -80 0 -80 0 0 80 0 80 200 0 c187 0 201 1 220 20 19 19 20 33 20 500 0 468
0 480 -20 500 -20 20 -31 20 -591 20 l-570 -1 -45 40 c-25 22 -65 48 -89 58
-31 12 -46 25 -50 43 -4 14 -26 58 -51 98 -24 40 -44 75 -44 77 0 3 17 5 38 5
46 0 96 30 122 72 16 27 20 50 20 128 -1 59 -6 104 -14 119 -11 19 -10 34 2
85 18 79 11 308 -12 383 -30 94 -27 93 -368 92 -273 0 -297 -1 -348 -21z m597
-64 c32 -9 44 -57 50 -196 7 -154 1 -169 -37 -90 -35 75 -101 141 -178 179
-52 26 -66 28 -172 28 -106 0 -120 -2 -172 -28 -75 -37 -139 -100 -180 -178
l-33 -64 -3 68 c-2 49 2 78 16 110 39 88 119 151 209 167 56 9 468 12 500 4z
m-212 -188 c59 -27 138 -110 155 -162 14 -41 7 -53 -17 -32 -10 9 -37 25 -60
37 -26 13 -43 28 -43 39 0 29 -37 80 -70 97 -18 9 -33 15 -35 13 -1 -2 -10
-18 -20 -37 -17 -34 -17 -34 10 -55 35 -28 32 -74 -5 -93 -32 -16 -330 -18
-330 -3 0 54 91 162 165 196 70 33 180 33 250 0z m93 -286 c22 -32 24 -215 3
-274 -27 -77 -123 -155 -192 -156 -18 0 -39 12 -62 35 -31 31 -41 35 -84 35
-86 0 -113 55 -121 238 l-5 122 161 0 162 0 32 29 c32 28 34 29 61 13 15 -9
36 -28 45 -42z m92 -567 c0 -35 -6 -50 -36 -83 -38 -42 -62 -53 -44 -21 19 36
12 123 -14 168 l-25 42 27 20 27 19 32 -51 c23 -37 33 -64 33 -94z m-181 28
c29 -41 26 -81 -9 -130 -29 -40 -32 -41 -53 -26 -12 8 -42 15 -67 15 -25 0
-55 -7 -67 -15 -21 -15 -24 -14 -53 26 -41 57 -39 69 12 69 35 0 47 6 79 39
28 30 47 41 75 44 22 2 44 4 51 5 6 1 21 -11 32 -27z m-519 -105 c0 -23 39
-64 154 -163 61 -53 116 -109 123 -124 6 -15 25 -37 42 -50 l31 -23 0 -258 0
-258 -140 0 -140 0 0 300 0 300 -40 0 -40 0 0 -87 0 -86 -25 23 -26 24 -32
-32 -31 -32 57 -58 57 -58 0 -113 0 -113 -37 23 c-61 36 -120 98 -154 163 -28
51 -34 74 -37 144 -4 73 0 99 33 217 43 154 76 213 143 256 45 28 62 30 62 5z
m847 -15 c58 -42 75 -67 163 -243 45 -87 84 -158 88 -158 4 0 41 23 82 50 41
27 78 50 81 50 7 0 99 -137 99 -147 0 -5 -50 -43 -112 -85 -99 -70 -117 -78
-157 -78 -28 0 -59 8 -78 20 -48 29 -223 266 -223 302 0 26 -3 28 -40 28 l-40
0 0 -300 0 -300 -140 0 -140 0 0 258 0 258 31 23 c17 13 36 35 42 50 7 15 62
71 123 124 116 100 154 140 154 163 0 22 24 16 67 -15z m1223 -421 l0 -360
-520 0 -520 0 0 39 0 39 74 4 c80 4 79 3 296 158 40 29 84 48 157 68 56 16
113 36 128 46 91 59 87 209 -7 266 -29 18 -51 20 -186 20 -171 0 -166 1 -290
-82 -41 -27 -75 -48 -77 -46 -9 9 -95 189 -95 198 0 7 173 10 520 10 l520 0 0
-360z m-431 176 c13 -12 21 -31 21 -52 0 -42 -21 -57 -128 -88 l-81 -23 -56
84 c-37 55 -51 85 -43 88 37 12 62 14 160 12 88 -2 110 -5 127 -21z m431 -656
l0 -40 -520 0 -520 0 0 40 0 40 520 0 520 0 0 -40z m-1360 -160 l0 -120 -140
0 -140 0 0 80 0 80 -40 0 -40 0 0 -80 0 -80 -140 0 -140 0 0 120 0 120 320 0
320 0 0 -120z m920 -40 l0 -80 -80 0 -80 0 0 80 0 80 80 0 80 0 0 -80z"/>
<path d="M633 1723 c-18 -9 -33 -20 -33 -24 0 -15 53 -70 81 -84 36 -19 122
-19 158 0 28 14 81 69 81 84 0 4 -16 15 -36 25 -37 17 -37 17 -63 -8 -36 -35
-89 -35 -121 -1 -27 29 -25 29 -67 8z"/>
<path d="M2040 760 l0 -80 -40 0 -40 0 0 40 0 40 -40 0 -40 0 0 -40 0 -40 -40
0 -40 0 0 -40 0 -40 280 0 280 0 0 40 0 40 -120 0 -120 0 0 80 0 80 -40 0 -40
0 0 -80z"/>
<path d="M1320 2000 l0 -520 600 0 600 0 0 520 0 520 -600 0 -600 0 0 -520z
m1120 400 l0 -40 -360 0 -360 0 0 40 0 40 360 0 360 0 0 -40z m0 -480 l0 -360
-520 0 -520 0 0 360 0 360 520 0 520 0 0 -360z"/>
<path d="M1480 2080 l0 -120 120 0 120 0 0 120 0 120 -120 0 -120 0 0 -120z"/>
<path d="M1800 2080 l0 -120 280 0 280 0 0 120 0 120 -280 0 -280 0 0 -120z
m480 0 l0 -40 -200 0 -200 0 0 40 0 40 200 0 200 0 0 -40z"/>
<path d="M1480 1760 l0 -120 120 0 120 0 0 120 0 120 -120 0 -120 0 0 -120z"/>
<path d="M1800 1840 l0 -40 280 0 280 0 0 40 0 40 -280 0 -280 0 0 -40z"/>
<path d="M1800 1680 l0 -40 200 0 200 0 0 40 0 40 -200 0 -200 0 0 -40z"/>
</g>
</svg>
