<?xml version="1.0" ?><svg data-name="Layer 1" id="Layer_1" viewBox="0 0 512 512" xmlns="http://www.w3.org/2000/svg"><path d="M212.34,254.3A43.66,43.66,0,1,0,256,210.65,43.71,43.71,0,0,0,212.34,254.3Zm49.9,0V227.65a27.43,27.43,0,1,1-12.48,0V254.3a6.24,6.24,0,0,0,12.48,0Z"/><rect height="27.99" width="16.82" x="230" y="309.55"/><rect height="27.99" width="16.82" x="203.85" y="309.55"/><rect height="27.99" width="16.82" x="230" y="358.78"/><rect height="27.99" width="16.82" x="203.85" y="358.78"/><rect height="27.99" width="16.82" x="291.33" y="309.55"/><rect height="27.99" width="16.82" x="265.17" y="309.55"/><rect height="27.99" width="16.82" x="291.33" y="358.78"/><rect height="27.99" width="16.82" x="265.17" y="358.78"/><rect height="27.99" width="16.82" x="140.58" y="260.33"/><rect height="27.99" width="16.82" x="114.43" y="260.33"/><rect height="27.99" width="16.82" x="140.58" y="309.55"/><rect height="27.99" width="16.82" x="114.43" y="309.55"/><rect height="27.99" width="16.82" x="140.58" y="358.78"/><rect height="27.99" width="16.82" x="114.43" y="358.78"/><rect height="27.99" width="16.82" x="380.74" y="260.33"/><rect height="27.99" width="16.82" x="354.59" y="260.33"/><rect height="27.99" width="16.82" x="380.74" y="309.55"/><rect height="27.99" width="16.82" x="354.59" y="309.55"/><rect height="27.99" width="16.82" x="380.74" y="358.78"/><rect height="27.99" width="16.82" x="354.59" y="358.78"/><path d="M435.38,422.62h-5.73V234.74c0-.22-.11-.4-.12-.61a8.52,8.52,0,0,0-.2-1,7.86,7.86,0,0,0-1.29-3c-.12-.16-.1-.38-.23-.54L377.9,168.65a8.11,8.11,0,0,0-6.28-3H264.12V153.47a30.38,30.38,0,0,0,8,1.19c8.85,0,16.51-3.87,22.81-7.06,10.94-5.55,17.09-8.09,26.72-.84a8.12,8.12,0,0,0,13-6.47V87.34a8.13,8.13,0,0,0-3.24-6.48c-18.09-13.62-32.95-6.13-43.79-.65s-17.13,8.07-26.72.86a8.11,8.11,0,0,0-13,6.48v78.13H140.38a8.11,8.11,0,0,0-6.28,3L84.19,229.6c-.13.16-.11.38-.23.54a7.86,7.86,0,0,0-1.29,3,8.52,8.52,0,0,0-.2,1c0,.21-.12.39-.12.61V422.62H76.62a8.11,8.11,0,0,0,0,16.22H435.38a8.11,8.11,0,1,0,0-16.22Zm-171.26-322c12.24,3.37,22.66-1.86,30.79-6,9.68-4.9,15.62-7.44,23.48-3v35.48c-12.28-3.39-22.69,1.86-30.82,6-9.66,4.88-15.61,7.45-23.45,3Zm-90.86,322H98.58V242.85h74.68Zm5.61-196H107.59l36.63-44.73h100Zm143.63,196h-133V239L256,193.48,322.5,239ZM267.79,181.9h100l36.63,44.73H333.12ZM413.42,422.62H338.73V242.85h74.69Z"/></svg>