<?xml version="1.0" standalone="no"?>
<!DOCTYPE svg PUBLIC "-//W3C//DTD SVG 20010904//EN"
 "http://www.w3.org/TR/2001/REC-SVG-20010904/DTD/svg10.dtd">
<svg version="1.0" xmlns="http://www.w3.org/2000/svg"
 width="256.000000pt" height="256.000000pt" viewBox="0 0 256.000000 256.000000"
 preserveAspectRatio="xMidYMid meet">
<metadata>
Created by potrace 1.16, written by Peter Selinger 2001-2019
</metadata>
<g transform="translate(0.000000,256.000000) scale(0.100000,-0.100000)"
fill="#000000" stroke="none">
<path d="M100 2509 c-14 -6 -36 -20 -48 -32 -54 -50 -52 -9 -52 -945 l0 -869
23 -34 c12 -19 42 -44 67 -56 44 -23 48 -23 487 -23 l442 0 -5 -32 c-28 -158
-84 -208 -242 -216 -112 -6 -149 -25 -172 -90 -13 -37 -13 -47 0 -84 10 -27
27 -50 49 -65 l34 -23 597 0 597 0 34 23 c22 15 39 38 49 65 13 37 13 47 0 84
-23 65 -60 84 -172 90 -158 8 -214 58 -242 216 l-6 32 443 0 c439 0 443 0 487
22 25 13 55 38 67 57 l23 34 0 872 0 872 -22 33 c-13 18 -36 43 -51 54 -28 21
-29 21 -1195 23 -762 1 -1176 -2 -1192 -8z m2346 -112 l24 -28 0 -690 0 -689
-40 0 -40 0 0 668 c0 506 -3 671 -12 680 -17 17 -2179 17 -2196 0 -9 -9 -12
-174 -12 -680 l0 -668 -40 0 -40 0 0 688 c0 746 -2 720 54 742 11 5 526 8
1149 7 l1129 -2 24 -28z m-146 -772 l0 -635 -1020 0 -1020 0 0 635 0 635 1020
0 1020 0 0 -635z m170 -826 c0 -103 -8 -125 -55 -145 -51 -21 -2219 -21 -2270
0 -47 20 -55 42 -55 145 l0 91 1190 0 1190 0 0 -91z m-1016 -309 c4 -36 20
-85 40 -125 l33 -65 -247 0 -247 0 33 65 c20 40 36 89 40 125 l7 60 167 0 167
0 7 -60z m404 -292 c18 -18 14 -46 -7 -58 -27 -14 -1115 -14 -1142 0 -21 12
-25 40 -7 58 17 17 1139 17 1156 0z"/>
<path d="M900 2010 c-195 -93 -363 -174 -372 -179 -11 -7 -18 -23 -18 -42 0
-28 5 -33 105 -79 l104 -49 3 -163 3 -163 278 -140 277 -140 278 140 277 140
3 162 2 163 38 19 c20 10 47 22 60 25 l22 7 0 -141 0 -141 -45 -67 c-50 -74
-54 -91 -26 -116 28 -25 50 -17 87 30 l31 42 16 -27 c26 -45 54 -64 81 -57 46
12 44 48 -8 126 l-46 70 0 194 c0 143 -3 196 -12 204 -29 22 -743 352 -762
351 -12 -1 -181 -77 -376 -169z m627 -46 c136 -64 250 -118 252 -120 2 -2 -98
-4 -222 -4 l-227 0 0 28 c0 35 -16 52 -50 52 -43 0 -50 -16 -50 -123 0 -114 8
-137 50 -137 31 0 50 22 50 59 0 21 4 21 222 21 122 0 219 -2 217 -4 -2 -2
-112 -54 -244 -116 -217 -102 -243 -112 -268 -102 -58 22 -576 267 -577 273 0
3 134 69 298 146 163 78 298 142 299 142 1 1 113 -51 250 -115z m-501 -447
l199 -94 3 -59 c4 -67 14 -84 52 -84 38 0 48 17 52 84 l3 59 199 93 c110 52
201 94 203 94 2 0 3 -48 3 -108 l0 -107 -230 -115 -230 -115 -230 115 -230
115 0 107 c0 60 2 108 4 108 2 0 93 -42 202 -93z"/>
<path d="M1120 800 c-24 -24 -24 -29 -4 -58 14 -21 22 -22 164 -22 142 0 150
1 164 22 20 29 20 34 -4 58 -18 18 -33 20 -160 20 -127 0 -142 -2 -160 -20z"/>
</g>
</svg>
