<?xml version="1.0" standalone="no"?>
<!DOCTYPE svg PUBLIC "-//W3C//DTD SVG 20010904//EN"
 "http://www.w3.org/TR/2001/REC-SVG-20010904/DTD/svg10.dtd">
<svg version="1.0" xmlns="http://www.w3.org/2000/svg"
 width="256.000000pt" height="256.000000pt" viewBox="0 0 256.000000 256.000000"
 preserveAspectRatio="xMidYMid meet">
<metadata>
Created by potrace 1.16, written by Peter Selinger 2001-2019
</metadata>
<g transform="translate(0.000000,256.000000) scale(0.100000,-0.100000)"
fill="#000000" stroke="none">
<path d="M2169 2516 c-4 -4 -34 -11 -69 -17 -73 -11 -112 -30 -197 -92 -99
-73 -143 -171 -158 -350 -7 -94 3 -163 36 -228 19 -39 82 -100 126 -122 26
-13 135 -47 195 -61 37 -9 163 12 216 35 62 27 141 112 187 204 l40 78 0 126
c0 119 -2 129 -28 180 -60 112 -208 237 -294 247 -26 3 -51 3 -54 0z m121
-103 c77 -51 142 -119 170 -178 35 -71 40 -207 11 -285 -32 -83 -97 -165 -156
-194 -76 -39 -179 -45 -275 -16 -126 37 -166 68 -208 158 -23 50 -24 62 -19
175 6 160 21 201 97 270 92 82 148 107 245 107 76 0 83 -2 135 -37z"/>
<path d="M2110 2393 c-107 -23 -191 -88 -231 -178 -31 -70 -39 -236 -15 -299
25 -65 81 -110 168 -137 161 -49 278 -12 358 112 51 79 63 126 58 220 -4 59
-10 86 -31 121 -31 54 -129 146 -174 165 -38 15 -47 15 -133 -4z m130 -56
c128 -97 160 -149 160 -259 0 -55 -5 -76 -32 -129 -44 -83 -87 -117 -168 -130
-55 -9 -73 -7 -134 12 -89 26 -119 48 -145 102 -25 51 -29 183 -9 251 21 70
115 149 198 167 43 9 109 2 130 -14z"/>
<path d="M2146 2282 c-2 -4 -8 -56 -12 -116 l-7 -108 -86 3 -86 4 -3 -27 c-4
-33 18 -47 87 -55 l49 -6 -5 -33 c-8 -46 10 -43 31 5 14 29 28 43 58 55 36 14
40 18 35 43 -4 22 3 38 34 77 21 27 39 53 39 57 0 22 -28 5 -58 -33 l-32 -42
0 92 c0 84 -2 92 -19 92 -11 0 -22 -3 -25 -8z"/>
<path d="M940 2219 c-13 -5 -31 -16 -40 -23 -8 -8 -31 -17 -50 -21 -50 -10
-135 -70 -175 -125 -62 -84 -79 -162 -50 -224 15 -32 15 -35 -20 -107 -43 -90
-47 -149 -12 -201 13 -19 27 -47 31 -62 4 -15 18 -39 31 -52 34 -34 19 -70
-48 -111 -77 -48 -195 -160 -238 -226 -50 -77 -113 -269 -132 -402 -1 -11 -11
26 -21 83 -10 61 -23 105 -31 108 -15 6 -117 -22 -158 -43 l-29 -14 5 -97 c6
-137 34 -363 57 -457 10 -44 21 -94 25 -111 3 -17 20 -44 36 -60 29 -28 34
-29 116 -26 47 1 89 4 93 7 6 4 107 8 535 19 179 4 240 11 261 28 17 13 25
122 16 206 -8 71 -8 73 12 68 12 -3 39 -6 61 -6 40 0 40 0 41 -40 1 -21 10
-56 20 -77 15 -30 25 -39 49 -41 29 -3 31 -5 27 -38 -3 -21 2 -44 12 -59 l16
-25 263 5 c323 6 839 42 849 58 4 7 8 30 8 52 0 35 4 42 29 51 27 11 28 14 30
84 1 51 -3 80 -14 97 -16 23 -18 23 -123 17 l-107 -7 53 57 c30 31 52 62 49
69 -6 20 -47 20 -121 -2 -150 -44 -311 -71 -426 -71 l-111 0 7 36 c6 35 4 39
-63 103 -62 58 -154 189 -178 253 -4 10 -16 20 -26 23 -21 7 -109 -22 -109
-36 0 -4 16 -34 35 -66 35 -58 34 -74 -4 -53 -13 6 -41 8 -69 4 -39 -5 -66 0
-144 26 l-95 33 -5 62 c-3 34 -13 78 -23 98 -16 34 -16 37 2 60 15 20 30 26
82 31 68 6 158 42 233 94 l43 29 35 -18 c44 -24 67 -24 108 1 64 39 67 118 6
167 l-35 28 28 55 c24 48 28 66 27 145 0 57 -6 103 -15 125 -19 44 -6 90 25
87 27 -3 42 62 26 115 -11 38 -109 138 -136 138 -8 0 -34 21 -58 47 -40 42
-48 47 -99 51 -36 3 -72 -1 -103 -12 -53 -18 -88 -21 -80 -7 4 5 -8 21 -25 36
-69 57 -159 85 -209 64z m53 -533 c19 -13 43 -26 53 -28 14 -2 10 -11 -22 -48
-22 -25 -46 -46 -54 -46 -8 -1 -27 -5 -41 -9 -20 -5 -33 -1 -54 17 -23 20 -26
29 -21 56 18 79 73 102 139 58z m554 -13 c5 -16 8 -60 8 -99 0 -62 -4 -79 -38
-143 -40 -77 -40 -93 6 -107 26 -7 67 -43 67 -57 0 -18 -32 -47 -51 -47 -10 0
-37 10 -59 21 l-41 21 -57 -35 c-59 -35 -117 -67 -126 -67 -12 0 -47 72 -57
118 -11 55 -32 69 -43 30 -11 -43 -6 -89 14 -128 11 -22 20 -42 20 -46 0 -12
-146 9 -181 26 -47 24 -121 113 -144 173 -10 26 -21 47 -26 47 -4 0 -8 -26 -8
-58 0 -48 6 -68 32 -113 34 -56 104 -113 159 -127 29 -7 29 -8 11 -25 -18 -16
-23 -15 -97 28 -107 61 -181 126 -206 181 l-19 45 22 37 c29 47 43 83 58 153
l11 56 25 -23 c53 -49 113 -55 152 -13 l19 21 23 -26 c45 -52 126 -23 172 63
15 27 27 56 27 65 0 14 6 16 33 11 35 -7 219 19 246 35 27 16 40 11 48 -17z
m-858 -433 c6 -22 26 -56 43 -75 33 -39 195 -163 244 -188 42 -22 51 -35 59
-89 l7 -48 -34 0 c-51 0 -152 54 -189 101 -29 37 -85 76 -95 66 -5 -5 59 -102
89 -136 48 -52 106 -82 197 -101 50 -11 128 -31 173 -46 67 -21 94 -25 149
-21 62 5 69 4 79 -15 16 -30 3 -120 -26 -178 l-24 -48 -71 -12 c-53 -9 -91 -9
-156 0 -185 24 -317 87 -407 193 -49 57 -77 72 -76 40 1 -32 73 -126 133 -175
49 -39 80 -54 179 -85 l119 -38 -5 -104 c-3 -69 -10 -108 -19 -117 -11 -11
-72 -15 -291 -18 -152 -3 -281 -7 -287 -11 -21 -13 -131 7 -150 28 -27 28 -50
142 -50 244 0 274 73 552 178 681 33 41 200 191 213 192 3 0 11 -18 18 -40z
m-535 -467 c3 -10 10 -62 16 -115 5 -54 15 -117 21 -140 6 -24 15 -90 19 -148
9 -129 17 -174 42 -222 l18 -38 -49 0 c-40 0 -53 4 -65 22 -9 12 -16 32 -16
43 -1 11 -8 38 -16 60 -14 37 -57 325 -71 471 l-6 61 39 11 c56 14 62 14 68
-5z m1357 -123 c10 -10 40 -20 77 -24 52 -6 64 -11 82 -35 25 -36 25 -41 0
-41 -15 0 -26 -12 -39 -43 -21 -48 -48 -61 -153 -72 -65 -7 -65 -6 -25 63 16
26 20 52 20 120 -1 69 2 83 11 68 6 -11 18 -27 27 -36z m809 -140 c-19 -17
-38 -30 -43 -30 -5 0 -21 -8 -35 -19 -28 -19 -73 -23 -414 -38 -152 -6 -191
-2 -170 19 7 7 12 20 12 29 0 15 6 16 73 3 119 -23 252 -18 421 16 82 17 156
35 165 40 30 17 26 9 -9 -20z m176 -122 c-3 -13 -6 -32 -6 -43 0 -19 -8 -20
-173 -23 -94 -1 -237 -7 -317 -13 -80 -6 -212 -12 -293 -14 -82 -2 -181 -9
-220 -15 -40 -7 -92 -10 -117 -8 -41 3 -45 6 -59 41 -11 30 -11 41 -2 50 9 9
99 12 344 12 298 0 804 19 816 31 2 2 11 4 19 4 10 0 13 -7 8 -22z m-68 -159
c4 -31 4 -30 -238 -49 -74 -6 -142 -13 -150 -15 -20 -6 -388 -24 -525 -26
l-110 -2 -3 35 -3 34 103 12 c57 6 267 17 468 22 201 6 376 13 390 14 52 7 65
2 68 -25z"/>
</g>
</svg>
