<?xml version="1.0" standalone="no"?>
<!DOCTYPE svg PUBLIC "-//W3C//DTD SVG 20010904//EN"
 "http://www.w3.org/TR/2001/REC-SVG-20010904/DTD/svg10.dtd">
<svg version="1.0" xmlns="http://www.w3.org/2000/svg"
 width="256.000000pt" height="256.000000pt" viewBox="0 0 256.000000 256.000000"
 preserveAspectRatio="xMidYMid meet">
<metadata>
Created by potrace 1.16, written by Peter Selinger 2001-2019
</metadata>
<g transform="translate(0.000000,256.000000) scale(0.100000,-0.100000)"
fill="#000000" stroke="none">
<path d="M1085 2397 l-320 -122 0 -35 0 -35 135 -51 135 -51 3 -35 c3 -32 0
-36 -73 -82 -176 -111 -301 -276 -371 -486 -26 -80 -28 -96 -29 -255 0 -176 9
-229 56 -340 l17 -41 -38 -22 c-21 -11 -63 -44 -94 -73 -46 -42 -90 -66 -239
-133 -174 -78 -182 -83 -185 -111 -1 -22 29 -88 121 -255 102 -185 128 -226
147 -228 15 -3 94 31 213 89 184 90 191 93 271 97 80 4 86 3 301 -69 l220 -74
125 0 c111 0 132 3 185 26 83 35 284 155 386 230 97 73 279 246 350 336 61 76
79 118 79 183 0 96 -49 145 -141 138 -34 -2 -48 1 -45 8 32 82 32 356 1 469
-38 141 -164 346 -258 420 -33 27 -34 28 -16 46 26 26 25 93 -2 120 -15 15
-19 30 -17 61 3 39 5 41 58 62 52 21 55 24 55 57 l0 34 -325 122 c-179 68
-338 122 -355 122 -16 -1 -174 -56 -350 -122z m606 -59 c137 -51 249 -95 249
-98 0 -3 -112 -47 -250 -98 l-249 -93 -250 93 c-138 51 -251 95 -251 98 0 5
476 187 494 189 5 1 121 -41 257 -91z m229 -233 c0 -14 -9 -34 -20 -45 -13
-13 -20 -33 -20 -60 0 -27 7 -47 20 -60 13 -13 20 -33 20 -59 0 -34 3 -39 29
-44 18 -4 46 -27 78 -64 138 -160 203 -328 203 -531 0 -112 -19 -217 -55 -297
-17 -40 -36 -61 -94 -103 -67 -49 -71 -50 -48 -20 81 108 127 259 127 418 0
201 -65 364 -200 501 -41 42 -86 84 -100 95 -25 19 -25 20 -20 143 l5 123 30
13 c42 19 45 18 45 -10z m-650 -90 c80 -30 156 -55 170 -55 14 0 90 25 170 55
80 30 146 55 148 55 1 0 2 -34 2 -76 0 -74 -1 -78 -34 -109 -111 -105 -482
-102 -578 5 -25 27 -28 38 -28 105 0 41 1 75 3 75 1 0 67 -25 147 -55z m-227
-127 c4 -27 0 -36 -21 -52 -15 -11 -61 -54 -103 -97 -59 -59 -87 -98 -122
-167 -63 -125 -81 -212 -75 -365 4 -116 19 -183 62 -278 5 -13 0 -18 -25 -23
-39 -8 -41 -6 -75 99 -39 116 -45 297 -15 416 44 176 143 329 282 441 40 32
76 58 80 58 4 0 9 -15 12 -32z m215 -152 c54 -12 57 -14 57 -43 0 -24 -9 -37
-45 -65 -24 -18 -58 -56 -75 -83 -26 -41 -30 -60 -33 -131 -3 -65 0 -91 16
-126 27 -62 75 -113 134 -142 l50 -25 -98 -3 -99 -3 0 -66 c0 -56 5 -73 30
-114 17 -27 51 -65 75 -83 25 -19 46 -38 48 -43 2 -4 -41 10 -95 32 -141 57
-218 79 -278 79 l-54 0 -24 53 c-39 81 -57 166 -57 267 0 203 88 381 248 502
l63 48 40 -20 c21 -11 65 -26 97 -34z m606 -28 c71 -63 140 -167 173 -258 35
-98 43 -262 18 -359 -35 -136 -119 -265 -226 -349 l-56 -43 -104 18 -104 19
-3 39 c-2 37 1 42 45 75 26 19 61 57 78 84 26 42 30 61 33 132 3 65 0 91 -16
126 -27 62 -75 113 -134 142 l-50 25 98 3 99 3 0 66 c0 56 -5 73 -30 114 -17
27 -51 65 -75 83 -36 28 -45 41 -45 65 0 29 3 31 58 43 31 8 74 22 95 33 35
18 39 18 65 3 16 -10 52 -38 81 -64z m-384 -48 l0 -60 50 -31 c43 -26 100 -96
100 -122 0 -4 -14 -7 -30 -7 -23 0 -41 10 -69 40 -35 37 -42 40 -90 40 -47 0
-57 -4 -87 -34 -30 -30 -34 -40 -34 -86 0 -45 4 -56 33 -85 25 -25 44 -34 87
-40 123 -17 190 -86 190 -196 0 -70 -34 -127 -100 -168 l-50 -31 0 -61 0 -60
-37 3 -38 3 -3 58 c-3 58 -3 58 -53 88 -42 26 -99 96 -99 122 0 4 14 7 30 7
23 0 41 -10 69 -40 35 -37 42 -40 90 -40 47 0 57 4 87 34 30 30 34 40 34 86 0
45 -4 56 -33 85 -25 25 -44 34 -87 40 -124 17 -190 85 -190 198 0 69 39 134
101 168 44 24 44 24 47 87 l3 62 39 0 40 0 0 -60z m908 -793 c5 -59 -35 -116
-187 -267 -145 -144 -257 -230 -435 -332 -140 -80 -191 -97 -289 -98 -71 0
-100 7 -310 76 l-232 76 -102 -4 -101 -3 -176 -87 -175 -87 -29 52 c-111 196
-163 300 -156 307 5 5 76 38 158 74 123 55 159 75 209 122 37 34 92 72 137 93
73 35 78 36 195 36 l120 0 182 -73 c164 -66 202 -77 365 -108 223 -41 230 -44
226 -87 -2 -25 -10 -36 -39 -49 -33 -17 -45 -17 -175 -3 -76 8 -192 15 -256
15 l-118 0 0 -39 c0 -48 6 -51 124 -51 51 0 162 -7 245 -15 182 -18 217 -13
273 46 28 30 38 48 40 80 l3 42 220 163 c180 134 225 163 250 161 27 -2 30 -6
33 -40z"/>
</g>
</svg>
