<?xml version="1.0" standalone="no"?>
<!DOCTYPE svg PUBLIC "-//W3C//DTD SVG 20010904//EN"
 "http://www.w3.org/TR/2001/REC-SVG-20010904/DTD/svg10.dtd">
<svg version="1.0" xmlns="http://www.w3.org/2000/svg"
 width="256.000000pt" height="256.000000pt" viewBox="0 0 256.000000 256.000000"
 preserveAspectRatio="xMidYMid meet">
<metadata>
Created by potrace 1.16, written by Peter Selinger 2001-2019
</metadata>
<g transform="translate(0.000000,256.000000) scale(0.100000,-0.100000)"
fill="#000000" stroke="none">
<path d="M445 2428 c-3 -7 -4 -528 -3 -1158 l3 -1145 835 0 835 0 3 950 2 950
-207 207 -208 208 -628 0 c-493 0 -629 -3 -632 -12z m1197 -265 l3 -198 198
-3 197 -2 0 -880 0 -880 -760 0 -760 0 0 1080 0 1080 560 0 560 0 2 -197z
m208 2 l125 -125 -128 0 -127 0 0 125 c0 69 1 125 3 125 1 0 58 -56 127 -125z"/>
<path d="M605 2268 c-3 -7 -4 -168 -3 -358 l3 -345 35 0 35 0 3 317 2 317 158
3 157 3 0 35 0 35 -193 3 c-149 2 -194 0 -197 -10z"/>
<path d="M992 1940 c-18 -11 -41 -34 -52 -52 -19 -31 -20 -48 -18 -258 l3
-225 35 0 35 0 3 118 3 117 79 0 79 0 3 -117 3 -118 35 0 35 0 3 225 c2 210 1
227 -18 258 -11 18 -34 41 -52 52 -45 27 -131 27 -176 0z m128 -80 c22 -12 40
-60 40 -106 l0 -34 -80 0 -80 0 0 34 c0 91 56 140 120 106z"/>
<path d="M1447 1834 c-4 -4 -7 -31 -7 -60 l0 -53 -57 -3 -58 -3 0 -35 0 -35
57 -3 57 -3 3 -57 3 -57 35 0 35 0 3 57 3 57 57 3 57 3 0 35 0 35 -57 3 -57 3
-3 57 c-3 55 -4 57 -33 60 -17 2 -34 0 -38 -4z"/>
<path d="M764 1146 c-3 -8 -4 -25 -2 -38 l3 -23 515 0 515 0 0 35 0 35 -513 3
c-438 2 -513 0 -518 -12z"/>
<path d="M764 826 c-3 -8 -4 -25 -2 -38 l3 -23 515 0 515 0 0 35 0 35 -513 3
c-438 2 -513 0 -518 -12z"/>
<path d="M764 506 c-3 -8 -4 -25 -2 -38 l3 -23 515 0 515 0 0 35 0 35 -513 3
c-438 2 -513 0 -518 -12z"/>
</g>
</svg>
