<?xml version="1.0" standalone="no"?>
<!DOCTYPE svg PUBLIC "-//W3C//DTD SVG 20010904//EN"
 "http://www.w3.org/TR/2001/REC-SVG-20010904/DTD/svg10.dtd">
<svg version="1.0" xmlns="http://www.w3.org/2000/svg"
 width="256.000000pt" height="256.000000pt" viewBox="0 0 256.000000 256.000000"
 preserveAspectRatio="xMidYMid meet">
<metadata>
Created by potrace 1.16, written by Peter Selinger 2001-2019
</metadata>
<g transform="translate(0.000000,256.000000) scale(0.100000,-0.100000)"
fill="#000000" stroke="none">
<path d="M1242 2428 c-9 -9 -12 -88 -12 -294 l0 -281 -292 -164 c-161 -90
-303 -173 -315 -186 -18 -18 -23 -33 -23 -78 l0 -55 -281 0 c-174 0 -288 -4
-300 -10 -18 -10 -19 -28 -19 -621 l0 -609 26 -10 c35 -14 2473 -14 2508 0
l26 10 0 609 c0 593 -1 611 -19 621 -12 6 -126 10 -300 10 l-281 0 0 55 c0 45
-5 60 -22 78 -13 12 -155 96 -315 186 l-293 164 0 83 0 84 55 0 55 0 0 -43 c0
-24 5 -48 12 -55 9 -9 71 -12 220 -12 199 0 208 1 218 21 9 16 7 34 -9 82
l-21 61 22 63 c22 60 22 62 4 82 -17 18 -31 21 -108 21 l-88 0 0 38 c0 67 -13
72 -198 72 l-162 0 0 33 c0 40 -15 57 -50 57 -14 0 -31 -5 -38 -12z m348 -243
l0 -65 -130 0 -130 0 0 65 0 65 130 0 130 0 0 -65z m-15 -584 l280 -158 3
-617 2 -616 -105 0 -105 0 0 284 c0 252 -2 285 -17 297 -24 20 -682 20 -706 0
-15 -12 -17 -45 -17 -297 l0 -284 -105 0 -105 0 2 616 3 616 280 158 c154 88
287 159 295 159 8 0 141 -71 295 -158z m-975 -861 l0 -530 -255 0 -255 0 0
530 0 530 255 0 255 0 0 -530z m1870 0 l0 -530 -255 0 -255 0 0 530 0 530 255
0 255 0 0 -530z m-1240 -280 l0 -250 -110 0 -110 0 0 250 0 250 110 0 110 0 0
-250z m320 0 l0 -250 -110 0 -110 0 0 250 0 250 110 0 110 0 0 -250z"/>
<path d="M1193 1621 c-134 -61 -133 -268 1 -338 40 -21 132 -21 172 0 175 91
111 357 -86 357 -25 0 -64 -9 -87 -19z m151 -112 c42 -49 29 -107 -32 -138
-50 -26 -122 26 -122 88 0 11 12 33 26 50 20 25 34 31 64 31 30 0 44 -6 64
-31z"/>
<path d="M820 1130 l0 -50 95 0 95 0 0 50 0 50 -95 0 -95 0 0 -50z"/>
<path d="M1190 1130 l0 -50 90 0 90 0 0 50 0 50 -90 0 -90 0 0 -50z"/>
<path d="M1550 1130 l0 -50 95 0 95 0 0 50 0 50 -95 0 -95 0 0 -50z"/>
<path d="M820 930 l0 -50 95 0 95 0 0 50 0 50 -95 0 -95 0 0 -50z"/>
<path d="M1190 930 l0 -50 90 0 90 0 0 50 0 50 -90 0 -90 0 0 -50z"/>
<path d="M1550 930 l0 -50 95 0 95 0 0 50 0 50 -95 0 -95 0 0 -50z"/>
<path d="M190 1090 l0 -90 50 0 50 0 0 90 0 90 -50 0 -50 0 0 -90z"/>
<path d="M410 1090 l0 -90 50 0 50 0 0 90 0 90 -50 0 -50 0 0 -90z"/>
<path d="M190 740 l0 -90 50 0 50 0 0 90 0 90 -50 0 -50 0 0 -90z"/>
<path d="M410 740 l0 -90 50 0 50 0 0 90 0 90 -50 0 -50 0 0 -90z"/>
<path d="M190 395 l0 -95 50 0 50 0 0 95 0 95 -50 0 -50 0 0 -95z"/>
<path d="M410 395 l0 -95 50 0 50 0 0 95 0 95 -50 0 -50 0 0 -95z"/>
<path d="M2050 1090 l0 -90 50 0 50 0 0 90 0 90 -50 0 -50 0 0 -90z"/>
<path d="M2270 1090 l0 -90 50 0 50 0 0 90 0 90 -50 0 -50 0 0 -90z"/>
<path d="M2050 740 l0 -90 50 0 50 0 0 90 0 90 -50 0 -50 0 0 -90z"/>
<path d="M2270 740 l0 -90 50 0 50 0 0 90 0 90 -50 0 -50 0 0 -90z"/>
<path d="M2050 395 l0 -95 50 0 50 0 0 95 0 95 -50 0 -50 0 0 -95z"/>
<path d="M2270 395 l0 -95 50 0 50 0 0 95 0 95 -50 0 -50 0 0 -95z"/>
</g>
</svg>
