<svg fill="#592b0b" height="311.24749" viewBox="0 0 530 513" width="321.287732" xmlns="http://www.w3.org/2000/svg"><path d="m348.8 490.7-1.7 5.9h-6.1l9-28.7 8.2-.1 9.8 28.6-7.6.1-2.1-5.8zm1.7-5.4h6.2l-3.1-9.9zm-32.9-17.2 22.3-.1v5.6l-7.6.1.2 23.1h-7.2l-.2-23.1h-7.5zm-23.3.1 22.3-.1v5.6l-7.6.1.2 23.1h-7.3l-.2-23.1h-7.5zm-2.8 20.8c0 2.6-1.2 4.7-3.8 6.2-2.3 1.4-5.1 2.2-8.3 2.2-3.3 0-6-.7-8.2-2.1-2.5-1.6-3.7-3.9-3.7-6.8l-.1-20.1h7.5l.1 18.9c0 1.5.5 2.7 1.6 3.6s2.3 1.3 3.8 1.3c1.3 0 2.5-.4 3.4-1.3 1-.8 1.5-2 1.5-3.4l-.1-19.2h6.2zm-40.3 8.2c-4 0-7.2-1.2-9.6-3.8-2.6-2.7-3.9-6.5-3.9-11.4v-.9c0-3 .8-5.7 2.4-8.2 2.1-3.3 5.2-5.2 9.2-5.8h1.7c3.2 0 5.9.8 8.1 2.4 2.8 2 4.3 5 4.3 8.8l-7.3.7v-.4c0-1.8-.5-3.2-1.6-4.3-1-1-2.2-1.6-3.6-1.5-.8 0-1.6.2-2.4.6s-1.3.9-1.7 1.6-.8 1.7-1.1 3.1-.4 2.9-.4 4.3c0 2.6.5 4.7 1.3 6.3 1.1 1.9 2.6 2.9 4.7 2.9 1.3 0 2.4-.4 3.3-1.2 1.2-1 1.8-2.5 1.8-4.5l6.9.7c-.4 3.9-2 6.7-4.7 8.5-1.9 1.4-4.4 2.1-7.4 2.1zm-27.2-5.4 12-.1v5.5l-18.8.1-.2-28.7h6.8zm-26.9-.1-1.7 5.9h-6.1l9-28.7 8.2-.1 9.8 28.6-7.6.1-2.1-5.8zm1.6-5.4h6.2l-3.1-9.9zm-23.7 11.4c-4 0-7.1-1.2-9.6-3.8-2.6-2.7-3.9-6.5-3.9-11.4v-.9c0-3 .8-5.7 2.4-8.2 2.1-3.3 5.2-5.2 9.2-5.8h1.7c3.1 0 5.9.8 8.1 2.4 2.8 2 4.2 5 4.3 8.8l-7.2.7v-.4c0-1.8-.5-3.2-1.6-4.3-1-1-2.2-1.6-3.6-1.5-.8 0-1.6.2-2.4.6s-1.3.9-1.8 1.6c-.4.7-.8 1.7-1.1 3.1s-.4 2.9-.4 4.3c0 2.6.5 4.7 1.3 6.3 1.1 1.9 2.6 2.9 4.7 2.9 1.3 0 2.4-.4 3.3-1.2 1.2-1 1.8-2.5 1.8-4.5l6.9.7c-.4 3.9-2 6.7-4.7 8.5-1.8 1.4-4.4 2.1-7.4 2.1z"/><path d="m397.5 403.6 1.8 5.6-5 3.3-8.1-28.1 6.6-4.4 23.3 17.9-6.1 4.1-4.8-3.6zm-1.6-5.2 5-3.4-7.8-6.4zm-26 14.3-2.1-17.5 9.3-4.5 12.2 25-6 2.9-9.9-20.4 3.3 23.6-4.2 2-16.1-17.1 9.8 20.2-5.1 2.4-12.2-25 9.6-4.7zm100.1-114.3-6.7 12 4.8 2.7 5.4-9.6 4.7 2.6-5.4 9.6 5.7 3.2 6.8-12.3 5 2.8-10.3 18.2-24.3-13.6 10.1-18zm20-59.5-3.2 13.4 5.3 1.3 2.5-10.7 5.2 1.2-2.5 10.7 6.3 1.5 3.2-13.7 5.5 1.3-4.8 20.4-27.1-6.4 4.8-20.1zm-.8 44.8-13.4-11.4 3.8-9.6 25.9 10.1-2.5 6.2-21.2-8.2 18.5 15.1-1.7 4.3-23.4-1.6 20.9 8.1-2 5.2-25.9-10.1 3.9-9.9zm-.4-77.3.2-21.7h5.4l-.1 7.4 22.4.2-.1 7-22.4-.2-.1 7.3zm15.3 11.2-15.9-1.8.6-5.3 27.7 3.1-.6 5.7-19.6 9.2 18.4 2.1-.6 5.3-27.7-3.1.8-6.9zm-78.2 156.6-10.4-12.1 4-3.5 18.2 21.1-4.3 3.7-20.6-6.6 12.1 14-4 3.5-18.2-21.1 5.3-4.5zm50.1-40-2 2.7-3.2-1c.5 1.9.6 3.5.2 4.9-.3 1.2-.9 2.4-1.8 3.7l-.3.5c-2.1 2.8-4.9 4.3-8.4 4.3-3.3 0-6.7-1.2-10-3.5l-.5-.4c-3.6-2.6-5.6-5.8-6.1-9.6-.5-3.4.3-6.4 2.2-9 1.7-2.3 3.7-3.8 6-4.7 2.8-1 5.7-.7 8.6.9l-3.4 5.8c-1.1-.8-2.3-1.1-3.7-.9s-2.5.8-3.3 1.9c-1.3 1.7-1.3 3.6-.1 5.6.8 1.5 2.3 3 4.3 4.5 1.9 1.4 3.7 2.3 5.3 2.6 2.5.5 4.4-.1 5.8-2 .8-1.1 1.1-2.3.9-3.7-.2-1.3-.9-2.5-2.1-3.4l-3.3 4.5-4.5-3.2 7.1-9.7zm-33 32 3.1 5.1-4 4.4-14.5-25.4 5.4-5.9 26.9 11.9-5 5.4-5.6-2.3zm-2.7-4.8 4.1-4.4-9.1-4.3zm-112.3 55.2-13.4 3.1 1.4 5.9 10.7-2.5 1.2 5.3-10.7 2.5 2.5 10.9-6.8 1.6-6.3-27.1 20.1-4.7zm-22.1 13.5.1.7c.6 4.7-.2 8.5-2.1 11.2-1.9 2.6-4.6 4-8.4 4.5-3.4.4-6.2 0-8.3-1.2-3.3-1.9-5.3-5.9-6-11.9-.6-4.7.4-8.5 2.8-11.5 2-2.5 4.6-3.9 7.7-4.3 4-.5 7.3.7 10 3.4 2.4 2.5 3.8 5.5 4.2 9.1zm-17.9-.3.2 2.5c.1 1.2.2 1.9.3 2.2s.1.5.2.7c.2 2.1 1 3.7 2.3 5 1.2 1.1 2.4 1.6 3.7 1.4 1.2-.1 2.2-.8 3.1-2 .9-1.3 1.4-3 1.3-4.9l-.4-3.6-.3-2.2c-.2-1.9-.9-3.3-2.1-4.3s-2.5-1.5-3.8-1.3c-1.2.1-2.2.8-3.1 1.8-.9 1.2-1.3 2.7-1.4 4.7zm-152.8-51.5 18.2 11.8-2.9 4.6-6.2-4-12.2 18.8-5.9-3.8 12.2-18.8-6.1-3.9zm30.9 18.6 19.9 8.7-2.2 5-6.7-3-9 20.5-6.5-2.8 9-20.5-6.7-2.9zm-16.4 22.6-6.1-3.3 13.2-24.5 6.1 3.3zm106.5 5.2-13.7-1.2-.5 5.5 11 .9-.5 5.4-11-.9-.5 6.5 14 1.2-.5 5.7-20.9-1.8 2.4-27.7 20.6 1.8zm-43.2-10.8 21.3 4-1 5.3-7.2-1.4-4.2 22-6.9-1.3 4.2-22-7.1-1.3zm-8.4 18.8c-.7 2.4-2.5 3.9-5.3 4.7-2.5.7-5.3.5-8.4-.4-3-.9-5.4-2.4-7-4.4-1.8-2.2-2.3-4.7-1.4-7.4l5.8-18.7 6.9 2.1-5.4 17.5c-.4 1.4-.3 2.7.5 3.8.7 1.1 1.8 1.9 3.1 2.3 1.2.4 2.4.3 3.6-.2s2-1.4 2.4-2.8l5.5-17.8 5.7 1.8zm-82.6-58.7c-.8-.6-1.6-1-2.4-1.2-.8-.1-1.5.1-2 .8-.8 1-.5 2.5 1 4.5 1.2 1.4 2.1 2.5 2.7 3.1 1.6 2 2.5 3.9 2.7 5.8s-.4 3.8-1.8 5.5l-.9 1c-2.1 1.9-4.5 2.6-7.3 2.1-2.3-.4-4.6-1.5-6.8-3.3-1.9-1.6-3.3-3.3-4.2-5.1-1.3-2.8-1.3-5.6-.1-8.6l5.7 3c-.6 1.4-.6 2.9.2 4.3.5.9 1.2 1.7 2.1 2.4s1.8 1.2 2.9 1.4c1 .2 1.8 0 2.3-.6.4-.4.5-1 .5-1.6 0-1.2-.8-2.7-2.4-4.7-2.1-2.6-3.3-4.3-3.7-5.2-1-2.2-.9-4.3.3-6.3l.8-1.2c1.4-1.8 3.2-2.8 5.4-3.1 2.8-.4 5.6.5 8.4 2.8 1.9 1.6 3.3 3.2 4.2 5 1.1 2.4 1.2 4.6.1 6.7l-5.4-1.9c.3-.9.4-1.8.1-2.7-.2-.9-.7-1.7-1.4-2.5zm-23.8-6.1 11.4-11.2 3.7 3.8-19.9 19.5-4-4.1 5.3-21-13.2 12.9-3.7-3.8 19.9-19.5 4.9 5zm-40.4-52 14-7.7 2.6 4.7-24.4 13.4-2.7-5 10.8-18.8-16.3 8.9-2.5-4.7 24.4-13.3 3.3 6.1zm-22.8-34-5.9.6-2.2-5.6 29.2-1.9 3 7.4-22.4 19-2.7-6.8 4.5-4zm5.5-.4 2.2 5.6 7.9-6.3zm-15.1-10.3-2-6.7 26.7-7.9 2 6.7zm9.7-16.3c-3.7.7-7.1.3-10.1-1.4-3.4-1.8-5.4-4.7-6.2-8.7l-2.2-11.1 27.3-5.4 2.1 10.8c.8 4.2.1 7.7-2.2 10.7-2.1 2.7-5 4.4-8.7 5.1zm-11.2-11.8c.4 2.1 1.6 3.5 3.6 4.4 1.8.8 3.8 1 6.1.5s4.1-1.4 5.5-2.9c1.6-1.6 2.2-3.6 1.7-5.7l-.7-3.3-17 3.4zm3.2-22.7 16-1.2.4 5.3-27.8 2.1-.4-5.7 17.6-12.7-18.5 1.4-.4-5.3 27.8-2.1.5 6.9zm-13-24.5.1-6.9 27.8.4-.1 6.9zm58.4 161.6-4.4-5.4 21.6-17.6 4.4 5.4z"/><path d="m266.4 249.3c-.8 0-1.5.7-1.5 1.5s.7 1.5 1.5 1.5 1.5-.7 1.5-1.5c0-.9-.7-1.5-1.5-1.5m32.9-14c-.6.6-.6 1.5 0 2.1s1.5.6 2.1 0 .6-1.5 0-2.1c-.5-.5-1.5-.5-2.1 0zm-33.5-79.6c.8 0 1.5-.7 1.5-1.5s-.7-1.5-1.5-1.5-1.5.7-1.5 1.5c0 .9.6 1.5 1.5 1.5zm33.1 11.4c-.6.6-.6 1.5 0 2.1s1.5.6 2.1 0 .6-1.5 0-2.1-1.5-.6-2.1 0zm-66.1 2.6c.6-.6.6-1.5 0-2.1s-1.5-.6-2.1 0-.6 1.5 0 2.1c.6.5 1.5.5 2.1 0zm141.4 32c-2.8-1-11.1-4.7-17.3-13.6-5.9-8.5-12.8-10.5-15.5-11 2.4-5.4 4.1-7.6 4.9-8.5.2-.2.1-.5-.2-.5-1.1-.1-3.6-.4-8.5-2 1.6-2.4 4.5-8.4 2.6-18.3-2.1-10.6 1.1-19 2.3-21.8.2-.5 0-.8-.5-.5-2.7 1.3-11.1 4.5-21.8 2.6-10.2-1.8-16.6 1.5-18.7 3.1-2-5.3-2.3-8-2.4-9.2 0-.3-.3-.4-.5-.2-.9.8-2.9 2.4-7.9 4.8-.5-2.6-2.5-9.3-11.2-15.1-9-6-12.7-14.2-13.8-17.1-.2-.5-.5-.5-.7 0-1 2.8-4.7 11.1-13.6 17.3-8.5 5.9-10.5 12.6-10.9 15.2-5-2.3-7.1-3.9-8-4.7-.3-.2-.5-.1-.5.2-.1 1.2-.4 3.8-2.2 8.9-2.2-1.5-8.3-4.8-18.5-2.8-10.6 2.1-19-1-21.8-2.3-.5-.2-.7 0-.5.5 1.3 2.7 4.5 11.1 2.6 21.8-1.8 10 1.4 16.1 3 18.4-5.2 1.9-7.8 2.3-8.9 2.3-.3 0-.4.3-.2.5.8.9 2.4 2.9 4.8 7.8-2.6.5-9.3 2.5-15.1 11.1-6 9-14.2 12.7-17 13.8-.5.2-.5.5 0 .7 2.8 1 11.1 4.7 17.3 13.6 5.8 8.4 12.4 10.4 15.1 10.9-2.4 5.1-4 7.3-4.8 8.2-.2.3-.1.5.2.5 1.2.1 3.8.4 8.9 2.2-1.5 2.2-4.8 8.3-2.8 18.5 2.1 10.6-1 19-2.3 21.8-.2.5 0 .7.5.5 2.7-1.3 11.1-4.5 21.8-2.6 10.1 1.8 16.2-1.4 18.4-3 2 5.4 2.4 8.1 2.5 9.3 0 .3.3.4.5.2.9-.8 3-2.5 8.2-4.9.5 2.7 2.5 9.3 11.1 15.1 9 6 12.7 14.2 13.8 17 .2.5.5.6.7 0 1-2.8 4.7-11.1 13.6-17.3 8.5-5.9 10.5-12.5 10.9-15.2 5.2 2.4 7.3 4 8.2 4.8.3.2.5.1.5-.2.1-1.2.4-3.8 2.2-8.9 2.4 1.6 8.4 4.5 18.3 2.6 10.6-2.1 19 1 21.8 2.3.5.2.7 0 .5-.5-1.3-2.7-4.5-11.1-2.6-21.8 1.8-10.2-1.5-16.4-3.1-18.7 5.4-2 8.1-2.4 9.3-2.5.3 0 .4-.3.2-.5-.8-.8-2.3-2.8-4.6-7.5 2.9-.6 9.1-2.8 14.7-11.1 6.1-9 14.2-12.7 17.1-13.8.4.1.4-.2-.1-.4zm-30.9-32.2c-1.7 2.5-3.5 5.8-5.5 10.8-2.7 6.6-7.4 11.6-9.8 14-.8-.6-1.6-1.2-2.5-1.8-5.3-3.9-10.4-5.7-14.5-6.5 2.4-2 9.9-5.8 14-7.9 1.4-.8 1.3-1.4-.3-.9-4.6 1.5-12.4 4-15.5 4.4 2.3-3.5 4.5-8.3 5.4-14.7.2-1.2.3-2.3.5-3.3 3.4-.2 10.2-.4 16.7 2.3 4.9 2 8.5 3.1 11.5 3.6zm-33.2 76.3s-2.7.6-3.8.2c0 0 1.8 2.3 1.9 4.2-1.4-.2-3-.4-5-.7l-.8-.1c-10.9-1.5-16.7-7.8-19.2-10.4 8.7-4.1 15.7-11.2 19.7-20 2.7 2.4 8.9 7.8 10.6 18.8l.1.6c.3 2 .6 3.7.8 5.1-1-.1-3-.5-4.1-1.4-.1 0 .3 1.4-.2 3.7zm-35.4 15.2-.4.5c-1.2 1.6-2.2 3-3 4.1-.6-.8-1.8-2.5-1.9-3.9 0 0-.7 1.2-2.7 2.6 0 0-2.3-1.5-2.8-2.5 0 0-.4 2.9-1.6 4.3-.9-1.1-1.9-2.4-3.1-4l-.5-.6c-6.7-8.9-6.3-17.4-6.2-21 4.3 1.6 9.1 2.4 14 2.4 5 0 9.8-1 14.2-2.7s-.1 0-.1.1c.1 3.4.7 11.7-5.9 20.7zm-8.3-21.1c-10.3.1-19.7-4.1-26.5-10.8s-11-16-11.1-26.4c-.1-10.3 4-19.7 10.8-26.5 6.7-6.8 16-11 26.4-11.1 10.3-.1 19.7 4 26.5 10.8 6.8 6.7 11 16 11.1 26.3s-4 19.7-10.8 26.5c-6.7 6.9-16 11.1-26.4 11.2zm-43.3 6.5s-.6-2.7-.2-3.8c0 0-2.3 1.8-4.2 1.9.2-1.4.4-3 .7-5l.1-.8c1.5-10.7 7.5-16.5 10.3-19 4.1 8.7 11.2 15.7 20.1 19.6-2.4 2.7-7.9 8.8-18.7 10.5l-.6.1c-2 .3-3.7.6-5.1.8.1-1.1.5-3 1.4-4.1-.1-.1-1.4.3-3.8-.2zm-18.5-43.5s1.5-2.3 2.5-2.8c0 0-2.9-.4-4.3-1.6 1.1-.9 2.4-1.9 4-3.1l.7-.5c8.7-6.6 17.1-6.3 20.8-6.2-1.6 4.4-2.4 9.1-2.4 14s1 9.7 2.6 14c-3.6.2-11.8.7-20.6-5.8l-.5-.4c-1.6-1.2-3-2.2-4.1-3 .8-.6 2.5-1.7 3.9-1.9 0 .1-1.3-.6-2.6-2.7zm17.7-43.7s2.7-.6 3.8-.2c0 0-1.7-2.3-1.9-4.2 1.4.2 3 .4 5 .7l.8.1c10.9 1.5 16.7 7.8 19.1 10.4-8.7 4.1-15.7 11.2-19.7 20-2.7-2.4-8.9-7.8-10.6-18.8l-.1-.6c-.3-2-.6-3.7-.8-5.1 1 .1 3 .5 4.1 1.4.1 0-.2-1.4.3-3.7zm35.3-15.2.4-.5c1.2-1.6 2.2-3 3-4.1.6.8 1.7 2.5 1.9 3.9 0 0 .7-1.2 2.7-2.6 0 0 2.3 1.5 2.8 2.5 0 0 .4-2.9 1.6-4.3.9 1.1 1.9 2.4 3.1 4l.5.7c6.7 8.9 6.3 17.4 6.2 21-4.4-1.6-9-2.4-13.9-2.4-5 0-9.8 1-14.2 2.7s.1 0 .1-.1c-.2-3.5-.8-11.8 5.8-20.8zm51.7 14.6s.6 2.7.2 3.8c0 0 2.3-1.8 4.2-1.9-.2 1.4-.4 3-.7 5l-.1.8c-1.5 10.7-7.5 16.5-10.3 19-4.1-8.7-11.3-15.7-20-19.6 2.4-2.7 7.9-8.8 18.7-10.5l.6-.1c2-.3 3.6-.6 5.1-.8-.1 1-.5 3-1.4 4.1-.1.1 1.3-.3 3.7.2zm-5.2 57.6c1.6-4.4 2.4-9.1 2.4-14s-1-9.7-2.6-14c3.6-.2 11.8-.7 20.6 5.8l.5.4c1.6 1.2 3 2.2 4.1 3-.8.6-2.5 1.8-3.9 1.9 0 0 1.2.7 2.6 2.7 0 0-1.5 2.3-2.5 2.9 0 0 2.9.4 4.3 1.6-1.1.9-2.4 1.9-4 3.1l-.6.5c-8.9 6.5-17.3 6.3-20.9 6.1zm15.8-86.1c2.4.4 4.6.6 6.7.6-.3 1-1.2 3.1-2.4 4.6 0 0 2.5-1.1 5.5-.8 0 0-.3 2.8-1.9 4.9 0 0 2-1.1 5.1-1.5 0 0 0 1.9-1 5.1 0 0 1.9-2.3 5.5-2.9 0 0-.1.6.2 2 .1 1.9.3 4 .7 6.1 1.6 8.3-1.6 14.3-3.2 16.9-.8-.3-1.6-.6-2.5-1-8.4-3.4-14.8-3.7-17-3.7.8-5.3 1.2-7.9 1.8-9.4.1-.4-.2-.6-.5-.5-1.5.6-4.1 1.1-9.6 1.9 0-2-.3-8.4-3.9-17-.2-.6-.5-1.1-.7-1.6 2.1-1.4 8.2-5.3 17.2-3.7zm-22.3-5.4c.6 3 1.7 6.6 3.8 11.6 2.8 6.7 3 13.4 3 16.7-1.1.2-2.2.3-3.5.5-6.3 1-11.1 3.2-14.6 5.5.3-3 2.9-11.1 4.3-15.6.5-1.6-.1-1.9-.9-.4-2.2 4.4-6 11.7-7.9 14.1-.9-4.1-2.7-9.1-6.6-14.3-.6-.9-1.2-1.7-1.8-2.4 2.3-2.5 6.9-7.4 13.4-10.2 5-2 8.3-3.8 10.8-5.5zm-45-11.4c2-1.4 3.7-2.8 5.2-4.3.5 1 1.4 3.1 1.5 4.9 0 0 1.1-2.5 3.3-4.4 0 0 1.7 2.2 2.2 4.8 0 0 .6-2.1 2.5-4.7 0 0 1.3 1.4 2.9 4.3 0 0-.3-3 1.8-5.9 0 0 .4.4 1.5 1.3 1.4 1.3 3 2.6 4.8 3.8 7.3 4.9 9.1 11.7 9.7 14.6-.6.3-1.3.6-2 .8-8.4 3.5-13.1 7.8-14.6 9.4-3.4-4.5-4.9-6.7-5.6-8.2-.2-.3-.5-.3-.7 0-.7 1.5-2.2 3.7-5.4 8.2-1.5-1.5-6.2-5.8-14.7-9.2-.7-.3-1.3-.5-1.9-.8.6-2.5 2-9.4 9.5-14.6zm-22.7 23.4c2-5 3.1-8.6 3.6-11.6 2.5 1.7 5.8 3.5 10.8 5.5 6.6 2.7 11.2 7.5 13.6 10-.6.8-1.1 1.6-1.8 2.4-3.8 5.2-5.6 10.3-6.4 14.4-1.9-2.3-5.9-9.7-8.1-14.1-.8-1.4-1.3-1.2-.8.4 1.5 4.4 4.2 12.5 4.5 15.5-3.5-2.3-8.3-4.5-14.7-5.4-1.6-.2-3.7-.5-3.4-.5-.1-3.1-.1-9.9 2.7-16.6zm-36.3 12.1c.4-2.4.6-4.6.6-6.7 1 .4 3.1 1.2 4.6 2.4 0 0-1.1-2.5-.8-5.5 0 0 2.8.3 4.9 1.9 0 0-1.1-2-1.6-5.1 0 0 1.9 0 5.1 1 0 0-2.3-1.9-2.9-5.5 0 0 .6.1 2-.2 1.9-.1 3.9-.3 6-.7 8.6-1.7 14.7 1.8 17.1 3.4-.3.7-.5 1.4-.8 2.1-3.5 8.6-3.7 15.1-3.7 17.1.4.1-8-1.2-9.7-1.8-.3-.1-.6.1-.5.5.6 1.6 1.9 9.6 1.9 9.3-2.1 0-8.5.3-16.9 3.9-.7.3-1.3.5-1.9.8-1.3-2.3-5-8.1-3.4-16.9zm-5.2 21.7c3-.5 6.6-1.7 11.5-3.8 6.5-2.8 13.2-2.7 16.7-2.5 0 .2.3 2 .5 3.3 1 6.4 3.3 11.3 5.6 14.7-3-.3-11-2.7-15.7-4.2-1.6-.5-1.8.1-.3.9 4.2 2.1 11.8 5.9 14.2 7.8-4.1.9-9.1 2.7-14.2 6.6-1.3.9-2.4 1.8-3.4 2.6.3-.2.6-.4.9-.7-2.4-2.3-7.4-7.3-10.2-14-2.1-4.9-3.9-8.2-5.6-10.7zm-11.5 45c-1.4-2-2.8-3.7-4.3-5.2 1-.4 3.1-1.4 4.9-1.5 0 0-2.5-1-4.4-3.3 0 0 2.2-1.7 4.8-2.2 0 0-2.1-.6-4.7-2.5 0 0 1.4-1.3 4.3-2.9 0 0-3 .3-5.9-1.8 0 0 .5-.4 1.3-1.5 1.3-1.4 2.6-3 3.8-4.8 4.9-7.3 11.7-9.1 14.6-9.7.3.6.6 1.3.9 2 3.6 8.6 8.3 13.5 9.7 14.9-4.6 3.4-6.8 5-8.3 5.7-.3.2-.3.5 0 .7 1.4.6 3.6 2.1 7.8 5.1-1.5 1.5-5.8 6.3-9.2 14.7-.2.6-.5 1.1-.7 1.7-2.7-.5-9.4-2-14.6-9.4zm11.6 19.3c1.7-2.5 3.5-5.8 5.5-10.8 2.7-6.6 7.5-11.2 10-13.6.9.6 1.8 1.3 2.9 2.1 5.2 3.8 10.3 5.6 14.4 6.4-2.4 2-9.6 5.8-14 8.1-1.4.8-1.2 1.3.4.8 4.4-1.5 12.4-4.2 15.5-4.5-2.3 3.5-4.5 8.4-5.4 14.7-.2 1.1-.3 2.1-.4 3-3.3.1-10.6 0-17.3-2.7-5-1.9-8.6-3-11.6-3.5zm23.8 39.9c-2.4-.4-4.6-.6-6.7-.6.4-1 1.2-3.1 2.4-4.6 0 0-2.5 1.1-5.5.8 0 0 .3-2.8 1.9-4.9 0 0-2 1.1-5.1 1.5 0 0 0-1.9 1-5.1 0 0-2 2.3-5.5 2.9 0 0 .1-.6-.2-2-.1-1.9-.3-3.9-.7-6-1.7-8.6 1.8-14.7 3.4-17.2.7.3 1.3.5 2 .8 8.6 3.5 15.5 3.7 17.6 3.7-.8 5.7-1.3 8.4-1.9 10-.1.4.2.6.5.5 1.5-.6 9.2-1.9 9.1-1.9 0 2.1.4 8.5 3.9 16.9.2.5.4 1 .6 1.5-2.1 1.5-8 5.3-16.8 3.7zm21.9 5.6c-.6-3-1.7-6.6-3.8-11.5-2.8-6.5-2.7-13.2-2.5-16.7-.5.1 1.7-.3 3.6-.6 6.3-1 11.2-3.2 14.6-5.5-.3 3-2.7 11-4.2 15.7-.4 1.6.1 1.8.9.3 2.1-4.1 5.8-11.6 7.7-14.1.9 4.1 2.7 9.1 6.6 14.3.6.9 1.2 1.7 1.8 2.4-2.4 2.4-7.4 7.4-14 10.1-4.9 2.1-8.2 3.9-10.7 5.6zm45.3 11.2c-2 1.4-3.7 2.8-5.2 4.3-.5-.9-1.4-3-1.5-4.9 0 0-1 2.5-3.3 4.4 0 0-1.7-2.2-2.2-4.8 0 0-.6 2.1-2.5 4.7 0 0-1.3-1.4-2.9-4.3 0 0 .3 3-1.8 5.9 0 0-.4-.5-1.5-1.3-1.4-1.3-3-2.6-4.8-3.8-7.2-4.9-9.1-11.6-9.7-14.5.5-.2 1.1-.5 1.7-.7 8.2-3.5 13.2-8 14.9-9.7 3.5 4.7 5.1 6.9 5.8 8.4.2.3.5.3.7 0 .7-1.5 2.2-3.7 5.5-8.2 1.9 1.8 6.8 6 14.7 9.2.6.2 1.1.4 1.6.7-.6 2.6-2.1 9.5-9.5 14.6zm19.4-11.6c-2.5-1.7-5.8-3.5-10.8-5.5-6.4-2.6-11.4-7.2-13.9-9.7.6-.8 1.3-1.7 2-2.7 3.8-5.2 5.6-10.3 6.4-14.4 2 2.5 5.8 9.9 7.9 14 .8 1.4 1.4 1.3.9-.3-1.6-4.7-4.1-12.5-4.4-15.6 3.5 2.3 8.4 4.5 14.8 5.4 1.1.2 2.1.3 3 .4.1.7.1 1 .1 1.5.1 3.7 0 9.5-2.4 15.3-2 5-3 8.6-3.6 11.6zm39.6-23.9c-.4 2.4-.6 4.6-.6 6.7-1-.3-3.1-1.2-4.5-2.4 0 0 1.1 2.5.8 5.5 0 0-2.8-.3-4.9-1.9 0 0 1.1 2 1.5 5.1 0 0-1.9 0-5.1-1 0 0 2.3 1.9 2.9 5.5 0 0-.6-.1-2 .2-1.9.1-3.9.3-6.1.7-8.3 1.6-14.3-1.6-16.9-3.2.2-.7.5-1.3.8-2.1 3-7.2 3.6-13 3.7-15.8 0-.5 0-1 0-1.3 5.5.8 8.1 1.2 9.6 1.8.4.1.6-.1.5-.5-.6-1.5-1.1-4.2-2-9.9 2.5-.1 9.1-.6 17-3.9l1.5-.6c1.5 2.2 5.4 8.2 3.8 17.1zm5.5-22.2c-3 .5-6.6 1.7-11.5 3.8-6.3 2.7-13.2 2.9-16.7 2.9-.2-1-.3-2-.5-3.1-1-6.4-3.3-11.3-5.7-14.8 3.2.4 11 2.9 15.4 4.3 1.6.5 1.8-.1.4-.9-4.4-2.2-11.7-5.9-14.1-7.9 4.1-.9 9.1-2.7 14.3-6.6.9-.7 1.8-1.4 2.6-2 2.5 2.3 7.4 6.9 10.1 13.4 2.2 5.1 4 8.4 5.7 10.9zm15.2-23.6c-1.3 1.4-2.6 3-3.8 4.8-4.7 7-11.1 9-14.2 9.6-.3-.7-.7-1.5-1-2.4-3.5-8.4-7.8-13.1-9.4-14.6 4.3-3.2 6.5-4.7 7.9-5.4.3-.1.3-.5 0-.7-1.5-.7-3.8-2.2-8.4-5.6 1.6-1.6 6-6.6 9.3-14.9.2-.4.4-.9.5-1.3 2.7.5 9.8 2 15 9.5 1.4 2 2.8 3.7 4.3 5.2-.9.5-3 1.4-4.9 1.5 0 0 2.5 1 4.4 3.3 0 0-2.2 1.7-4.8 2.2 0 0 2.1.6 4.7 2.5 0 0-1.4 1.3-4.3 2.9 0 0 3-.3 5.9 1.8 0 .1-.4.5-1.2 1.6zm-44.9-9.5c-.8 0-1.5.7-1.5 1.5s.7 1.5 1.5 1.5 1.5-.7 1.5-1.5-.7-1.5-1.5-1.5zm-81.1 37.2c.6-.6.6-1.5 0-2.1s-1.5-.6-2.1 0-.6 1.5 0 2.1 1.6.5 2.1 0zm-15.4-33.6c.8 0 1.5-.7 1.5-1.5s-.7-1.5-1.5-1.5-1.5.7-1.5 1.5c.1.8.7 1.5 1.5 1.5zm48-34.9c-18.3.1-33 15-32.8 33.3.1 15.1 10.3 27.7 24.1 31.6l-.1-3.7s1.3-3 3.9-3.2c2.6-.1 10.5-.1 10.5-.1s3.5.4 4.5 3.6v3c13.5-4.2 23.2-16.9 23.1-31.8 0-18.2-14.9-32.9-33.2-32.7zm-13.7 19.9s1.8-2.7 4.8-5.9c2.1-2.3 2.3-5.1 2.2-6.6 0-.6.1-.7.2 0 .3 1.1.7 3.3.2 6.7 0 0 2.2-2.7 4.7-4.7 2.1-1.8 3.4-5 3.4-7.6 0-.4.2-.7.6-.1 1.9 2.8 7.3 10.8 9 14.5 2.1 4.4 6.9 15.2-4.7 18.5 0 0 4-5.4 2.4-13.6 0 0-.7 2.5-3.3 4.9s-3.9 4.7-3.8 5.3c0 0-3.5-2.7-3.5-11.5 0 0 .1 2.6-2.6 4.7s-2.2 6.7-1 7.6c0 0-2.9-1.4-3.6-4.5 0 0-.8 4.4 1 6.6 0 0-9.6-6.6-6-14.3zm25.9 18.1c0 .7-.6 1.3-1.3 1.3l-20.9.1c-.7 0-1.3-.6-1.3-1.3s.6-1.3 1.3-1.3l20.9-.1c.8 0 1.3.6 1.3 1.3zm-1.6 21.7c-2-3.3-4.4-2.8-4.4-2.8l-11.3.1c-2.7 0-3.8 2.6-3.8 2.6l-.2-8.1 19.6-.1zm.4-9.4-20.9.1c-.7 0-1.3-.6-1.3-1.3s.6-1.3 1.3-1.3l20.9-.1c.7 0 1.3.6 1.3 1.3s-.6 1.2-1.3 1.3zm4.8-3.7-30.2.2c-1.8 0-3.2-1.4-3.2-3.2s1.4-3.2 3.2-3.2l30.2-.2c1.8 0 3.2 1.4 3.2 3.2s-1.4 3.2-3.2 3.2z"/><path d="m287.8 329.6 5.9-1.6-2.9-11.3c-1.4 1.9-2.8 3.4-4.2 4.3l-1.1-3.5c1.5-1.2 2.4-1.8 2.7-2.2.3-.3.8-.9 1.4-1.8s1-1.6 1.2-2.2l2.4-.7 4.1 16.7 5.1-1.4.9 2.9-14.9 3.7zm-10.8 4.6c-2.2 0-4-.7-5.4-2.2-1.6-1.6-2.6-4-2.9-7.1-.3-3 .2-5.6 1.4-7.6 1.3-2.1 3.1-3.2 5.5-3.4h.9c3.1 0 5.2 1.4 6.3 4.3l-3 1.1c-.9-1.7-1.9-2.4-3.3-2.4h-.4c-1.6.1-2.6.9-3.1 2.3-.5 1.5-.7 3-.6 4.5v.2c.9-1.7 2.4-2.6 4.6-2.8h.7c1.6 0 3 .5 4.2 1.4 1.4 1.1 2.2 2.6 2.3 4.4.2 1.9-.4 3.6-1.6 5s-2.9 2.2-4.9 2.4c-.1-.1-.4-.1-.7-.1zm-.3-10.1c-1 .1-1.8.5-2.4 1.3-.6.7-.8 1.6-.7 2.6s.5 1.8 1.2 2.4c.6.5 1.4.8 2.3.8h.4c1-.1 1.8-.5 2.4-1.1.6-.7.9-1.6.7-2.8-.1-.8-.5-1.6-1.2-2.2-.6-.6-1.4-.9-2.3-.9 0-.1-.2-.1-.4-.1zm-19.1 10.5c-1.7-.1-3-.6-4.1-1.4s-1.7-1.8-2-2.9l3.1-.9c.9 1.4 1.9 2.1 3.2 2.2 1.5 0 2.5-.6 3.3-1.8.7-1.1 1.2-2.7 1.4-4.7-.7.9-1.4 1.5-2.1 1.8-.8.3-1.6.4-2.4.5h-.4c-1.9-.1-3.4-.8-4.6-2s-1.8-2.8-1.7-4.8c.1-1.9.8-3.5 2.2-4.7 1.2-1.1 2.8-1.7 4.7-1.7h.6c2.4.1 4.4 1.1 5.8 2.8s2 4.2 1.9 7.3c-.2 3.1-1 5.7-2.5 7.6-1.4 1.8-3.4 2.7-5.7 2.7zm.9-17.4c-.9 0-1.7.3-2.4.9s-1.1 1.5-1.1 2.4.2 1.7.8 2.4 1.4 1.1 2.5 1.2h.1c1.1 0 1.9-.3 2.6-.8.8-.6 1.2-1.5 1.2-2.7 0-.8-.2-1.6-.8-2.3s-1.5-1.1-2.6-1.1zm-25.5 13.5.4-3.1 6 1 2-11.5c-2.1 1.2-4 1.9-5.6 2.2l.4-3.7c1.9-.5 2.9-.7 3.4-.9.4-.2 1.1-.5 2-1.1.9-.5 1.6-1.1 2-1.5l2.5.4-3.1 16.9 5.2.8-.4 3.1v.2z"/><path d="m267 340.6c-75.3 1.3-139.3-62-139.1-137.2-1.3-75.2 62.2-139.5 137.2-139l-.4-54.9c-29.6 1.6-23.2-2.5-25.7 18.9-1.2 6-6.1 4.5-10.2 5.9-6.4 1.4-12.8 3.2-19 5.4-3.6.8-6.9 4.3-10.1-.1-2.5-3.8-7.8-11.6-7.8-11.6s-1.9-2.8-5.1-1.4c-12.1 5.4-24.1 12.4-34.8 20.2-3 1.7-1.3 5.1-1.3 5.1s4.3 9 5.8 12.6c1.7 5-1.7 6.2-4.4 8.8-5.8 5.1-11.2 10.5-16.3 16.3-.8.9-1.6 1.9-2.4 2.8-1.9 2.3-3.1 4.8-7 3.1-4-2-12.6-6-12.6-6s-3.1-1.5-5.1 1.3c-3.7 5.2-7.2 10.6-10.4 16.3-13.4 26.5-13.8 18.9 3.4 31.8 5 4-.4 9.8-1.1 14.7-2.3 7.8-4.1 15.8-5.3 23.8-.5 1.1-1.6 2.2-3.8 2.3-4.5.3-13.9 1.1-13.9 1.1s-3.4.3-3.7 3.7c-1.3 13.2-1.1 27.1.4 40.3.1 3.5 3.8 3.7 3.8 3.7s10 .6 13.8 1.1c2.2.3 3.4 1.5 4.1 2.6 6.5 39.7 18.4 30.2-4.3 45.9 0 0-3.1 2.1-1.3 5.1 2.9 6.3 6.2 12.5 9.8 18.6 3.4 5.6 6.9 11 10.7 16 2.1 2.8 5.1 1.2 5.1 1.2 24.8-12.6 9-8 42.1 18.2.6 1.1 1.1 2.8.3 4.8-1.4 3.6-5.6 12.7-5.6 12.7s-1.6 3.4 1.4 5.1c10.8 7.6 22.9 14.5 35.1 19.7 3.2 1.3 5.1-1.5 5.1-1.5 15-23 3.6-11.5 43.9-5.4 1.1.6 2.6 1.8 2.9 4.2 2.8 21.3-3.6 17.3 26 18.5z"/><path d="m373 309.7s-5.3-1.8-2-13 12.4-22.5 14.4-25.3c0 0-.3 21.5-3.5 29.3-2.5 6.1-5.9 8.9-8.9 9m-25.3 23.4s-4.9-2.7.3-13.2 16.2-20 18.5-22.4c0 0-4 21.2-8.5 28.2-3.5 5.6-7.4 7.7-10.3 7.4zm42.7-25.2s-3.1-3 1.5-11c4.7-8 13.1-14.3 15-15.9 0 0-4.9 17.1-8.7 22.4-2.9 4.1-5.8 5.3-7.8 4.5zm-67.5 38.8s-4.4-3 1.5-12.5c6-9.4 17.3-17.5 19.8-19.5 0 0-5.8 19.7-10.8 26-3.9 5-7.8 6.6-10.5 6zm43-14.7s-3-3.3 3.7-9.9c6.7-6.5 17.5-10.9 19.9-12 0 0-8.6 14.9-13.9 19.1-4.1 3.3-7.6 3.9-9.7 2.8zm-92.8 27.5s-3.4-3.6 3.9-10.7 19.1-11.9 21.7-13.2c0 0-9.3 16.1-15 20.7-4.5 3.6-8.3 4.2-10.6 3.2zm121.6-42.8s-2.1-8.4 10.9-13.4c13-5.1 26.2-9.2 32-15.1 0 0-4.7 12.1-22.7 25-15.7 11.2-18.9 5.7-20.2 3.5zm-60.3 34.2s-2.1-4.2 6.4-9.2c8.4-5 20.3-6.7 23-7.3 0 0-12.6 13.2-19 16.1-5.1 2.3-8.6 2-10.4.4zm37.6-13.4s.2-7.7 13-9.9c12.8-2.1 25.6-3.4 32.2-7.5 0 0-7.2 9.8-26.4 17.9-16.7 7.1-18.1 1.7-18.8-.5zm-73.3 16.3s-3.6-3.3 3.1-10.9 18.1-13.3 20.6-14.8c0 0-8 16.8-13.4 21.7-4.2 4-7.9 4.9-10.3 4zm3 7.3s-1.2-4.2 7.3-7.4c8.5-3.3 19.7-2.9 22.3-3 0 0-13.7 10.1-20 11.8-5 1.2-8.2.4-9.6-1.4zm46-8.1s1.6-7.6 14.6-7.4 25.8 1.3 33-1.6c0 0-8.8 8.4-29.2 12.9-17.7 4-18.2-1.6-18.4-3.9zm-30.3 10.4s3.9-6.8 17.3-3.6 26.4 7.1 34.8 6.1c0 0-11.6 5.8-34.2 5.4-19.5-.3-18.3-5.7-17.9-7.9zm-21.9 7.9s4.1-6.3 16.2-1.8 23.7 9.8 31.5 9.6c0 0-11.2 4.6-31.8 1.9-18.1-2.3-16.5-7.5-15.9-9.7zm-25.6 5.4s4.6-6.6 16.6-1c12.1 5.6 23.6 11.9 31.6 12.2 0 0-11.7 4.3-32.6.2-18.2-3.6-16.3-9.1-15.6-11.4zm-.7-9.9s-.6-4 7.7-5.4 18.5.8 20.9 1.2c0 0-13.9 6.7-19.9 7.1-4.8.2-7.7-1.1-8.7-2.9zm167.4-157.9s-6.5-5.6.4-18.6 14.5-25.3 15.6-34.2c0 0 3.5 13.3-2.6 36.3-5.4 20-11 17.5-13.4 16.5zm-4.3 39.9s-5.5-6.9 3.9-18.6c9.4-11.8 19.3-22.7 22-31.4 0 0 1 14.1-9.4 36-9.1 19-14.3 15.4-16.5 14zm-18.7 39s-3.2-8.2 9.3-16.6 25.3-15.8 30.4-23.3c0 0-3.2 13.7-19.8 31.5-14.3 15.4-18.2 10.4-19.9 8.4zm11.6-123.2s-4.6 1.5-7.8-8.2c-3.1-9.6-2.2-22.3-2.2-25.2 0 0 10.3 15.3 11.8 22.5 1.3 5.6.2 9.3-1.8 10.9zm2.9 39s-4.8.2-5.7-9.7c-.9-10 2.8-21.8 3.5-24.6 0 0 6.5 17.2 6.4 24.3-.1 5.7-1.9 9-4.2 10zm-4.7 39.9s-4.9-.9-3.6-11.3 7.7-21.6 9-24.3c0 0 2.8 19.2 1.1 26.5-1.3 5.7-3.9 8.6-6.5 9.1zm-14.1 34.3s-4.2-2-.8-10.9c3.4-9 11.4-17.6 13.1-19.7 0 0-1.6 17.8-4.6 23.9-2.5 4.8-5.4 6.8-7.7 6.7zm4.1-105s-4.6 3.2-11.6-6.2-10.5-23.5-11.6-26.7c0 0 17 13.2 21.3 20.4 3.3 5.7 3.5 10.1 1.9 12.5zm1.8 37s-5.3 1.8-9.4-9.2c-4.1-10.9-3.7-25.5-3.8-28.8 0 0 12.8 17.3 14.9 25.5 1.5 6.4.5 10.7-1.7 12.5zm-6.1 39.4s-5.6.4-6.9-11.2 2.6-25.6 3.3-28.9c0 0 8.2 19.9 8.3 28.3 0 6.6-2 10.5-4.7 11.8zm-15.6 35.7s-5.6-.8-4.4-12.4 8-24.5 9.4-27.5c0 0 3.7 21.2 2 29.4-1.3 6.4-4.2 9.8-7 10.5zm-37.5-235.8s-5.9 2.1-11.7-7-10.9-18.5-16.2-22.3c0 0 9.8 2.6 22.3 14.9 10.8 10.5 7.1 13.2 5.6 14.4zm24.3 16.3s-6.2 1.3-10.7-8.6c-4.5-9.8-8.2-19.8-12.9-24.4 0 0 9.4 3.9 20 17.8 9.2 12.1 5.2 14.3 3.6 15.2zm23.1 24.6s-6.6.2-9.3-10.8c-2.8-10.9-4.8-21.8-8.8-27.4 0 0 8.9 5.7 17.2 21.9 7.2 14.1 2.7 15.6.9 16.3zm19.6 36.1s-7.4-1.7-7.4-14.6c0-13 .8-25.7-2-33 0 0 8.3 8.9 13 29.3 4 17.7-1.4 18-3.6 18.3zm-58.1-57s-2.7 3.9-11.3-1.1-15.9-14.6-17.7-16.7c0 0 17.8 4.7 23.5 8.9 4.5 3.2 6 6.5 5.5 8.9zm27.2 26.1s-3.5 3.3-10.3-3.9c-6.9-7.2-11.5-18.9-12.7-21.5 0 0 15.7 9.2 20 14.9 3.4 4.4 4.1 8.2 3 10.5zm20.9 31.7s-4.2 2.4-9.7-6-7.9-20.7-8.6-23.4c0 0 14 12.2 17.4 18.7 2.5 5 2.4 8.7.9 10.7zm-49-46.6s-.6 5.6-12.3 4.7-24.7-7.4-27.7-8.7c0 0 21.1-4.3 29.4-2.8 6.4 1.3 9.8 4 10.6 6.8zm21 25.9s-2.3 5.1-13.1.8c-10.9-4.4-21.3-14.5-23.8-16.6 0 0 21.4 2.3 28.8 6.2 5.8 3 8.2 6.6 8.1 9.6zm16.9 30.9s-3.7 4.2-12.8-3.1-16.1-20.1-17.9-22.9c0 0 19.8 8.5 25.7 14.4 4.7 4.6 5.9 8.8 5 11.6zm-90-104.4s-4.8 2.5-10.7-4.6-11.3-14.4-16.2-17.1c0 0 8.6 1.1 20.5 10 10.3 7.8 7.5 10.5 6.4 11.7zm22 7.5s-5.5 2.4-11.4-5.9c-5.9-8.4-11.2-17-16.3-20.3 0 0 9.4 1.8 21.7 12.7 10.7 9.5 7.4 12.3 6 13.5zm-36.6-.5s-.5 3.9-8.7 3.3c-8.3-.7-17.4-5.4-19.6-6.3 0 0 14.9-2.9 20.8-1.8 4.5.8 6.9 2.7 7.5 4.8zm34 9.9s-1.4 4.3-10.4 1.6-18-10-20.2-11.5c0 0 17.2.2 23.5 2.8 4.8 2 7 4.8 7.1 7.1zm-23.2 2.2s1.7 5.3-9.3 9.3-25.5 3.4-28.8 3.5c0 0 17.5-12.5 25.6-14.6 6.4-1.6 10.6-.5 12.5 1.8zm27.1 11.8s.4 5.6-11.2 6.9-25.6-2.8-28.9-3.5c0 0 20-8.1 28.4-8.1 6.5 0 10.4 2.1 11.7 4.7zm-45.7-35.6s-4.2 2.1-9.3-4-9.8-12.5-14.1-14.8c0 0 7.5.9 17.8 8.7 9 6.8 6.6 9.2 5.6 10.1zm147 137.5s-7.9-3.3-5.4-17.8c2.6-14.5 6-28.6 4.2-37.3 0 0 7.5 11.6 8.7 35.3 1.2 20.7-5 20-7.5 19.8z"/></svg>